<svg width="1018" height="357" viewBox="0 0 1018 357" fill="none" xmlns="http://www.w3.org/2000/svg">
<path d="M383.359 142.76C384.906 138.739 387.303 132.397 390.551 123.736C393.954 115.075 396.583 108.501 398.439 104.016C400.295 99.376 402.692 93.6533 405.631 86.848C408.724 80.0427 411.276 75.1707 413.287 72.232C415.298 69.1387 417.695 65.8907 420.479 62.488C425.274 56.6107 431.306 53.672 438.575 53.672C439.967 53.672 441.978 54.0587 444.607 54.832C438.73 58.2347 431.46 69.0613 422.799 87.312C414.138 105.563 406.172 124.509 398.903 144.152C391.788 163.795 384.21 181.659 376.167 197.744C368.279 213.675 361.86 221.64 356.911 221.64C354.9 221.64 352.735 221.176 350.415 220.248C353.354 213.907 357.452 203.853 362.711 190.088C368.124 176.168 372.764 165.419 376.631 157.84C355.132 134.795 338.583 114.611 326.983 97.288C315.538 79.9653 309.815 66.7413 309.815 57.616C309.815 56.0693 310.743 54.7547 312.599 53.672C314.455 52.4347 316.543 51.816 318.863 51.816C321.183 51.816 323.194 53.1307 324.895 55.76C326.596 58.3893 328.607 62.488 330.927 68.056C333.402 73.4693 336.34 79.656 339.743 86.616C343.3 93.4213 348.868 101.928 356.447 112.136C364.026 122.344 372.996 132.552 383.359 142.76ZM610.371 76.64C618.414 82.8267 624.832 90.9467 629.627 101C634.576 110.899 637.051 122.499 637.051 135.8C637.051 149.101 634.344 161.552 628.931 173.152C623.518 184.752 616.48 193.955 607.819 200.76C590.032 214.68 570.312 221.64 548.659 221.64C527.16 221.64 508.755 214.68 493.443 200.76C478.131 186.685 470.475 167.507 470.475 143.224C470.475 129.304 472.718 116.776 477.203 105.64C481.843 94.504 488.03 85.5333 495.763 78.728C511.848 64.4987 530.872 57.384 552.835 57.384C574.488 57.384 593.667 63.8027 610.371 76.64ZM485.787 143.688C485.787 163.64 491.432 179.571 502.723 191.48C514.168 203.389 529.326 209.344 548.195 209.344C570.003 209.344 587.48 202.693 600.627 189.392C613.928 175.936 620.579 159 620.579 138.584C620.579 118.013 613.928 101.619 600.627 89.4C587.326 77.1813 571.163 71.072 552.139 71.072C533.115 71.072 517.262 77.336 504.579 89.864C492.051 102.237 485.787 120.179 485.787 143.688ZM694.455 56.456C699.404 53.208 703.735 52.28 707.447 53.672C709.303 54.2907 709.999 55.992 709.535 58.776C704.895 89.4 702.575 110.512 702.575 122.112C702.575 133.557 703.193 143.533 704.431 152.04C705.823 160.392 708.065 169.208 711.159 178.488C714.407 187.613 719.433 195.037 726.239 200.76C733.044 206.328 741.319 209.112 751.063 209.112C764.673 209.112 776.583 200.837 786.791 184.288C797.153 167.584 802.335 147.555 802.335 124.2C802.335 100.691 796.844 77.7227 785.863 55.296C789.111 52.512 791.972 51.12 794.447 51.12C797.076 51.12 799.087 51.352 800.479 51.816C812.852 69.6027 819.039 92.7253 819.039 121.184C819.039 144.539 813.007 166.888 800.943 188.232C795.065 198.285 787.332 206.56 777.743 213.056C768.153 219.397 758.1 222.568 747.583 222.568C737.22 222.568 728.404 220.403 721.135 216.072C714.02 211.587 708.375 206.019 704.199 199.368C700.177 192.563 696.852 184.675 694.223 175.704C689.737 160.237 687.495 143.301 687.495 124.896C687.495 97.6747 689.815 74.8613 694.455 56.456ZM888.534 172.456L889.23 207.488C889.23 212.283 888.147 215.531 885.982 217.232C883.816 218.933 881.806 219.784 879.95 219.784C878.094 219.784 876.315 219.552 874.614 219.088C872.603 202.539 871.598 186.376 871.598 170.6C871.598 154.824 872.062 136.96 872.99 117.008C874.072 97.056 874.691 81.28 874.846 69.68C874.846 57.3067 891.395 51.12 924.494 51.12C941.971 51.12 958.443 54.7547 973.91 62.024C981.952 65.736 988.526 70.9947 993.63 77.8C998.734 84.4507 1001.29 91.952 1001.29 100.304C1001.29 108.501 999.43 115.925 995.718 122.576C992.006 129.227 987.288 134.795 981.566 139.28C975.843 143.611 969.27 147.4 961.846 150.648C949.627 156.216 936.016 159.928 921.014 161.784C928.438 165.96 940.502 176.013 957.206 191.944C962.155 196.739 968.419 201.069 975.998 204.936C983.576 208.648 991.387 210.504 999.43 210.504C1000.2 210.504 1001.83 210.349 1004.3 210.04C1006.78 209.576 1008.86 209.267 1010.57 209.112C1012.27 208.957 1013.81 209.344 1015.21 210.272C1016.75 211.045 1017.53 212.515 1017.53 214.68C1017.53 219.939 1010.95 222.568 997.806 222.568C982.494 222.568 967.259 216.691 952.102 204.936C945.451 199.987 938.955 194.883 932.614 189.624C916.992 176.477 902.376 168.203 888.766 164.8C888.611 166.192 888.534 168.744 888.534 172.456ZM983.886 103.088C983.886 90.096 978.008 80.352 966.254 73.856C954.654 67.2053 939.883 63.88 921.942 63.88C910.651 63.88 900.134 65.1173 890.39 67.592C890.39 79.8107 890.003 93.4213 889.23 108.424C888.456 123.272 888.07 133.48 888.07 139.048C888.07 144.616 888.147 148.715 888.302 151.344C911.192 149.643 928.902 146.936 941.43 143.224C954.886 139.357 964.939 134.563 971.59 128.84C979.787 121.725 983.886 113.141 983.886 103.088Z" fill="black"/>
<path d="M157.501 207.077C160.06 203.999 164.784 203.999 167.343 207.077L253.898 311.186C260.832 319.526 254.901 332.169 244.056 332.169H80.7885C69.9431 332.169 64.0123 319.526 70.9458 311.186L157.501 207.077Z" fill="#46B873"/>
<path d="M95.0882 267.312C123.169 297.036 240.045 301.99 253.705 289.605" stroke="white" stroke-width="10.24" stroke-linecap="round"/>
<path d="M157.501 84.7994C160.06 81.7215 164.784 81.7215 167.343 84.7994L253.898 188.909C260.832 197.248 254.901 209.892 244.056 209.892H80.7885C69.9431 209.892 64.0123 197.248 70.9458 188.909L157.501 84.7994Z" fill="#46B873"/>
<path d="M157.501 145.938C160.06 142.86 164.784 142.86 167.343 145.938L253.898 250.048C260.832 258.387 254.901 271.031 244.056 271.031H80.7885C69.9431 271.031 64.0123 258.387 70.9458 250.047L157.501 145.938Z" fill="#46B873"/>
<path d="M106.418 127.181C128.482 155.804 220.313 160.574 231.046 148.648" stroke="white" stroke-width="10.24" stroke-linecap="round"/>
<ellipse cx="118.054" cy="167.809" rx="9.54088" ry="10.1372" transform="rotate(-18.9861 118.054 167.809)" fill="#BB182C"/>
<circle cx="163.267" cy="114.858" r="9.54088" transform="rotate(-18.9861 163.267 114.858)" fill="#BB182C"/>
<circle cx="209.779" cy="175.681" r="9.54088" transform="rotate(-18.9861 209.779 175.681)" fill="#BB182C"/>
<path d="M248.339 167.73C241.184 189.197 155.912 232.131 74.8143 230.938" stroke="white" stroke-width="10.24" stroke-linecap="round"/>
<circle cx="206.202" cy="237.697" r="9.54088" transform="rotate(-18.9861 206.202 237.697)" fill="white"/>
<circle cx="182.749" cy="315.13" r="9.54088" transform="rotate(-18.9861 182.749 315.13)" fill="white"/>
<circle cx="117.948" cy="253.202" r="9.54088" transform="rotate(-18.9861 117.948 253.202)" fill="white"/>
<circle cx="157.304" cy="191.185" r="9.54088" transform="rotate(-18.9861 157.304 191.185)" fill="white"/>
<circle cx="168.474" cy="264.284" r="9.54088" transform="rotate(-18.9861 168.474 264.284)" fill="#BB182C"/>
<circle cx="105.267" cy="309.079" r="9.54088" transform="rotate(-18.9861 105.267 309.079)" fill="#BB182C"/>
<path d="M158.439 29.9599C159.588 26.422 164.593 26.422 165.743 29.9598L169.563 41.7159C170.077 43.2981 171.551 44.3693 173.215 44.3693H185.576C189.296 44.3693 190.842 49.1294 187.833 51.3159L177.832 58.5815C176.487 59.5594 175.923 61.2926 176.437 62.8748L180.257 74.6308C181.407 78.1686 177.358 81.1106 174.348 78.9241L164.348 71.6584C163.002 70.6806 161.179 70.6806 159.834 71.6584L149.833 78.9241C146.824 81.1106 142.775 78.1686 143.924 74.6308L147.744 62.8748C148.258 61.2926 147.695 59.5594 146.349 58.5815L136.349 51.3159C133.339 49.1294 134.886 44.3693 138.606 44.3693H150.967C152.63 44.3693 154.105 43.2981 154.619 41.7159L158.439 29.9599Z" fill="#E45F5F"/>
<path d="M341.563 268.814C343.64 267.447 345.909 266.436 348.369 265.78C350.829 265.124 353.261 264.796 355.667 264.796C358.072 264.796 360.313 264.96 362.391 265.288C364.523 265.561 366.682 266.053 368.869 266.764C371.11 267.475 372.941 268.568 374.363 270.044C375.784 271.52 376.577 273.269 376.741 275.292C376.795 276.112 376.467 276.741 375.757 277.178C375.101 277.561 374.335 277.752 373.461 277.752C372.641 277.752 372.012 277.561 371.575 277.178C371.192 276.741 370.809 276.112 370.427 275.292C368.349 271.083 363.812 268.978 356.815 268.978C352.059 268.978 348.15 269.989 345.089 272.012C342.082 274.035 340.579 276.987 340.579 280.868C340.579 283.055 341.262 284.941 342.629 286.526C343.995 288.057 345.772 289.259 347.959 290.134C350.2 291.009 352.633 291.801 355.257 292.512C357.935 293.223 360.587 294.015 363.211 294.89C365.889 295.765 368.322 296.803 370.509 298.006C372.75 299.209 374.554 300.903 375.921 303.09C377.287 305.222 377.971 307.791 377.971 310.798C377.971 315.171 375.811 318.889 371.493 321.95C367.229 325.011 361.844 326.542 355.339 326.542C350.309 326.542 345.389 325.476 340.579 323.344C335.768 321.212 333.363 319.025 333.363 316.784C333.363 316.183 333.718 315.636 334.429 315.144C335.139 314.597 335.823 314.324 336.479 314.324C337.189 314.324 337.845 314.543 338.447 314.98C339.048 315.363 339.731 315.909 340.497 316.62C341.262 317.331 341.945 317.877 342.547 318.26C346.701 320.884 351.348 322.196 356.487 322.196C360.095 322.196 363.621 321.103 367.065 318.916C370.509 316.675 372.231 313.695 372.231 309.978C372.231 307.463 371.301 305.386 369.443 303.746C367.584 302.051 365.261 300.849 362.473 300.138C359.685 299.373 356.651 298.525 353.371 297.596C350.145 296.667 347.139 295.71 344.351 294.726C341.563 293.742 339.239 292.157 337.381 289.97C335.522 287.783 334.593 285.187 334.593 282.18C334.593 279.119 335.221 276.467 336.479 274.226C337.791 271.93 339.485 270.126 341.563 268.814ZM396.909 297.596C396.909 289.068 396.553 281.551 395.843 275.046C395.843 273.351 396.553 271.875 397.975 270.618C399.396 269.361 401.282 268.404 403.633 267.748C408.334 266.545 413.5 265.944 419.131 265.944C426.401 265.944 432.114 267.557 436.269 270.782C440.478 273.953 442.583 278.845 442.583 285.46C442.583 292.075 439.904 297.377 434.547 301.368C429.189 305.359 422.657 307.354 414.949 307.354C411.013 307.354 406.885 306.534 402.567 304.894C402.293 307.518 402.157 311.071 402.157 315.554L402.239 319.572C402.239 320.884 402.211 322.251 402.157 323.672C401.883 324.055 401.583 324.328 401.255 324.492C400.927 324.656 400.681 324.765 400.517 324.82C400.407 324.929 400.216 325.011 399.943 325.066C399.669 325.121 399.478 325.148 399.369 325.148C399.041 325.257 398.658 325.312 398.221 325.312H396.827C396.717 321.212 396.663 317.522 396.663 314.242L396.909 297.596ZM402.403 298.99C406.393 301.669 411.177 303.008 416.753 303.008C422.329 302.953 427.03 301.231 430.857 297.842C434.683 294.398 436.597 290.189 436.597 285.214C436.597 280.239 434.629 276.522 430.693 274.062C426.757 271.602 422.028 270.372 416.507 270.372C411.04 270.372 406.202 271.629 401.993 274.144C402.266 277.697 402.403 285.979 402.403 298.99ZM480.212 265.124L492.84 265.37C497.05 265.37 499.947 265.862 501.532 266.846C501.368 268.377 500.794 269.388 499.81 269.88C498.826 270.372 497.405 270.618 495.546 270.618L477.834 270.372C473.352 270.372 469.58 270.509 466.518 270.782C465.917 273.843 465.616 278.244 465.616 283.984L465.698 287.674C465.698 289.259 465.671 290.954 465.616 292.758C468.131 293.195 471.411 293.414 475.456 293.414L485.214 293.332C488.932 293.332 491.064 293.523 491.61 293.906C492.157 294.289 492.43 294.699 492.43 295.136C492.43 297.213 489.779 298.252 484.476 298.252L465.862 297.678C465.808 298.99 465.753 301.231 465.698 304.402C465.589 311.017 465.343 316.019 464.96 319.408C468.459 319.627 470.974 319.736 472.504 319.736C474.035 319.736 475.62 319.709 477.26 319.654C478.9 319.599 481.962 319.435 486.444 319.162C490.927 318.889 494.262 318.752 496.448 318.752C498.69 318.752 500.22 318.916 501.04 319.244C501.86 319.517 502.27 320.173 502.27 321.212C502.27 321.868 502.079 322.333 501.696 322.606C501.368 322.825 501.068 323.016 500.794 323.18C500.521 323.289 500.166 323.399 499.728 323.508C499.346 323.563 498.99 323.617 498.662 323.672C498.389 323.727 497.979 323.781 497.432 323.836C496.94 323.836 496.53 323.863 496.202 323.918C495.929 323.918 495.546 323.918 495.054 323.918H493.906C483.192 324.41 476.331 324.656 473.324 324.656C464.304 324.656 459.794 323.399 459.794 320.884C459.685 315.8 459.63 310.962 459.63 306.37C459.63 291.227 460.122 278.627 461.106 268.568C462.254 266.764 465.589 265.725 471.11 265.452C474.554 265.233 477.588 265.124 480.212 265.124ZM563.725 277.67C562.905 278.435 562.194 278.982 561.593 279.31C560.992 279.638 560.39 279.665 559.789 279.392C559.242 279.119 558.86 278.9 558.641 278.736C558.422 278.572 557.985 278.053 557.329 277.178C556.728 276.249 556.345 275.675 556.181 275.456C553.393 272.012 549.785 270.29 545.357 270.29C540.984 270.29 536.856 271.711 532.975 274.554C529.148 277.342 526.06 281.032 523.709 285.624C521.358 290.216 520.183 294.999 520.183 299.974C520.183 306.097 522.206 311.099 526.251 314.98C530.351 318.861 535.763 320.802 542.487 320.802C549.266 320.802 555.197 318.916 560.281 315.144C561.101 314.543 561.976 313.668 562.905 312.52C563.889 311.372 564.709 310.552 565.365 310.06C566.076 309.568 566.732 309.349 567.333 309.404C567.989 309.459 568.891 309.65 570.039 309.978C567.688 314.57 563.752 318.151 558.231 320.72C552.764 323.235 546.56 324.492 539.617 324.492C532.674 324.492 526.798 322.551 521.987 318.67C517.176 314.789 514.771 309.158 514.771 301.778C514.771 297.186 515.536 292.758 517.067 288.494C518.598 284.175 520.702 280.376 523.381 277.096C526.114 273.761 529.504 271.11 533.549 269.142C537.649 267.174 542.077 266.19 546.833 266.19C555.306 266.19 560.937 270.017 563.725 277.67ZM592.94 266.272C592.393 290.981 592.093 310.279 592.038 324.164C591.218 325.039 590.48 325.476 589.824 325.476C589.223 325.476 588.703 325.339 588.266 325.066C587.009 324.246 586.38 322.715 586.38 320.474C586.489 294.179 586.681 278.791 586.954 274.308C587.227 269.825 587.637 267.229 588.184 266.518C588.731 265.807 589.387 265.452 590.152 265.452C590.917 265.452 591.847 265.725 592.94 266.272ZM661.996 323.59C661.121 324.793 659.864 325.394 658.224 325.394C657.786 325.394 657.349 325.339 656.912 325.23C655.709 322.497 654.807 318.643 654.206 313.668C653.659 308.639 653.249 305.331 652.976 303.746C647.017 303.527 641.058 303.418 635.1 303.418C629.141 303.418 623.811 303.664 619.11 304.156C618.618 306.397 618.071 309.759 617.47 314.242C616.923 318.67 616.513 321.649 616.24 323.18C614.272 324.765 612.495 324.984 610.91 323.836C611.074 322.524 611.32 320.447 611.648 317.604C611.976 314.761 612.249 312.356 612.468 310.388C612.741 308.365 613.124 305.823 613.616 302.762C614.108 299.701 614.572 297.077 615.01 294.89C615.502 292.649 616.158 290.161 616.978 287.428C617.798 284.64 618.645 282.262 619.52 280.294C620.394 278.326 621.46 276.331 622.718 274.308C624.03 272.285 625.424 270.645 626.9 269.388C630.289 266.6 633.979 265.206 637.97 265.206C641.96 265.206 645.268 266.737 647.892 269.798C650.57 272.859 652.593 276.877 653.96 281.852C655.326 286.827 656.42 291.829 657.24 296.858C658.06 301.887 658.852 307.026 659.618 312.274C660.383 317.522 661.176 321.294 661.996 323.59ZM646.744 278.08C645.705 275.401 644.366 273.324 642.726 271.848C641.086 270.317 639.063 269.552 636.658 269.552C634.252 269.552 631.929 270.727 629.688 273.078C627.446 275.429 625.67 278.353 624.358 281.852C622.007 288.357 620.531 294.371 619.93 299.892C625.396 299.291 630.89 298.99 636.412 298.99C641.933 298.99 647.263 299.154 652.402 299.482C652.183 298.662 651.773 296.721 651.172 293.66C650.57 290.599 649.942 287.92 649.286 285.624C648.684 283.273 647.837 280.759 646.744 278.08ZM685.967 268.158L685.557 304.484C685.557 310.115 685.721 315.445 686.049 320.474C689.329 320.693 692.308 320.802 694.987 320.802L712.207 320.474C714.886 320.474 716.225 321.239 716.225 322.77C716.225 324.574 710.485 325.476 699.005 325.476C696.217 325.476 692.636 325.339 688.263 325.066C683.89 324.793 681.238 324.355 680.309 323.754C680.036 317.959 679.899 308.502 679.899 295.382L680.309 266.518C681.73 265.425 682.878 264.878 683.753 264.878C685.229 264.878 685.967 265.971 685.967 268.158ZM750.644 269.306C750.644 266.682 760.047 265.37 778.852 265.37C783.171 265.37 788.719 265.561 795.498 265.944C802.277 266.272 805.775 266.764 805.994 267.42C805.885 269.88 803.616 271.11 799.188 271.11C797.931 271.11 795.826 270.973 792.874 270.7C789.922 270.427 787.38 270.29 785.248 270.29C783.171 270.29 782.132 270.755 782.132 271.684C782.132 283.437 781.859 300.958 781.312 324.246C780.164 325.066 778.469 325.476 776.228 325.476C776.173 323.071 776.146 320.201 776.146 316.866L776.556 281.442C776.556 277.178 776.501 273.597 776.392 270.7C775.244 270.591 773.741 270.536 771.882 270.536C770.078 270.536 767.235 270.7 763.354 271.028C759.473 271.301 756.739 271.438 755.154 271.438C752.147 271.438 750.644 270.727 750.644 269.306ZM824.661 308.256L824.907 320.638C824.907 322.333 824.524 323.481 823.759 324.082C822.994 324.683 822.283 324.984 821.627 324.984C820.971 324.984 820.342 324.902 819.741 324.738C819.03 318.889 818.675 313.176 818.675 307.6C818.675 302.024 818.839 295.71 819.167 288.658C819.55 281.606 819.768 276.03 819.823 271.93C819.823 267.557 825.672 265.37 837.371 265.37C843.548 265.37 849.37 266.655 854.837 269.224C857.68 270.536 860.003 272.395 861.807 274.8C863.611 277.151 864.513 279.802 864.513 282.754C864.513 285.651 863.857 288.275 862.545 290.626C861.233 292.977 859.566 294.945 857.543 296.53C855.52 298.061 853.197 299.4 850.573 300.548C846.254 302.516 841.444 303.828 836.141 304.484C838.765 305.96 843.029 309.513 848.933 315.144C850.682 316.839 852.896 318.369 855.575 319.736C858.254 321.048 861.014 321.704 863.857 321.704C864.13 321.704 864.704 321.649 865.579 321.54C866.454 321.376 867.192 321.267 867.793 321.212C868.394 321.157 868.941 321.294 869.433 321.622C869.98 321.895 870.253 322.415 870.253 323.18C870.253 325.039 867.93 325.968 863.283 325.968C857.871 325.968 852.486 323.891 847.129 319.736C844.778 317.987 842.482 316.183 840.241 314.324C834.72 309.677 829.554 306.753 824.743 305.55C824.688 306.042 824.661 306.944 824.661 308.256ZM858.363 283.738C858.363 279.146 856.286 275.702 852.131 273.406C848.031 271.055 842.81 269.88 836.469 269.88C832.478 269.88 828.761 270.317 825.317 271.192C825.317 275.511 825.18 280.321 824.907 285.624C824.634 290.872 824.497 294.48 824.497 296.448C824.497 298.416 824.524 299.865 824.579 300.794C832.67 300.193 838.929 299.236 843.357 297.924C848.113 296.557 851.666 294.863 854.017 292.84C856.914 290.325 858.363 287.291 858.363 283.738ZM904.723 265.124L917.351 265.37C921.56 265.37 924.457 265.862 926.043 266.846C925.879 268.377 925.305 269.388 924.321 269.88C923.337 270.372 921.915 270.618 920.057 270.618L902.345 270.372C897.862 270.372 894.09 270.509 891.029 270.782C890.427 273.843 890.127 278.244 890.127 283.984L890.209 287.674C890.209 289.259 890.181 290.954 890.127 292.758C892.641 293.195 895.921 293.414 899.967 293.414L909.725 293.332C913.442 293.332 915.574 293.523 916.121 293.906C916.667 294.289 916.941 294.699 916.941 295.136C916.941 297.213 914.289 298.252 908.987 298.252L890.373 297.678C890.318 298.99 890.263 301.231 890.209 304.402C890.099 311.017 889.853 316.019 889.471 319.408C892.969 319.627 895.484 319.736 897.015 319.736C898.545 319.736 900.131 319.709 901.771 319.654C903.411 319.599 906.472 319.435 910.955 319.162C915.437 318.889 918.772 318.752 920.959 318.752C923.2 318.752 924.731 318.916 925.551 319.244C926.371 319.517 926.781 320.173 926.781 321.212C926.781 321.868 926.589 322.333 926.207 322.606C925.879 322.825 925.578 323.016 925.305 323.18C925.031 323.289 924.676 323.399 924.239 323.508C923.856 323.563 923.501 323.617 923.173 323.672C922.899 323.727 922.489 323.781 921.943 323.836C921.451 323.836 921.041 323.863 920.713 323.918C920.439 323.918 920.057 323.918 919.565 323.918H918.417C907.702 324.41 900.841 324.656 897.835 324.656C888.815 324.656 884.305 323.399 884.305 320.884C884.195 315.8 884.141 310.962 884.141 306.37C884.141 291.227 884.633 278.627 885.617 268.568C886.765 266.764 890.099 265.725 895.621 265.452C899.065 265.233 902.099 265.124 904.723 265.124ZM964.573 265.124L977.201 265.37C981.41 265.37 984.308 265.862 985.893 266.846C985.729 268.377 985.155 269.388 984.171 269.88C983.187 270.372 981.766 270.618 979.907 270.618L962.195 270.372C957.712 270.372 953.94 270.509 950.879 270.782C950.278 273.843 949.977 278.244 949.977 283.984L950.059 287.674C950.059 289.259 950.032 290.954 949.977 292.758C952.492 293.195 955.772 293.414 959.817 293.414L969.575 293.332C973.292 293.332 975.424 293.523 975.971 293.906C976.518 294.289 976.791 294.699 976.791 295.136C976.791 297.213 974.14 298.252 968.837 298.252L950.223 297.678C950.168 298.99 950.114 301.231 950.059 304.402C949.95 311.017 949.704 316.019 949.321 319.408C952.82 319.627 955.334 319.736 956.865 319.736C958.396 319.736 959.981 319.709 961.621 319.654C963.261 319.599 966.322 319.435 970.805 319.162C975.288 318.889 978.622 318.752 980.809 318.752C983.05 318.752 984.581 318.916 985.401 319.244C986.221 319.517 986.631 320.173 986.631 321.212C986.631 321.868 986.44 322.333 986.057 322.606C985.729 322.825 985.428 323.016 985.155 323.18C984.882 323.289 984.526 323.399 984.089 323.508C983.706 323.563 983.351 323.617 983.023 323.672C982.75 323.727 982.34 323.781 981.793 323.836C981.301 323.836 980.891 323.863 980.563 323.918C980.29 323.918 979.907 323.918 979.415 323.918H978.267C967.552 324.41 960.692 324.656 957.685 324.656C948.665 324.656 944.155 323.399 944.155 320.884C944.046 315.8 943.991 310.962 943.991 306.37C943.991 291.227 944.483 278.627 945.467 268.568C946.615 266.764 949.95 265.725 955.471 265.452C958.915 265.233 961.949 265.124 964.573 265.124Z" fill="black"/>
</svg>
